<?xml version="1.0" encoding="utf-8"?>
<!-- Generator: Adobe Illustrator 19.2.1, SVG Export Plug-In . SVG Version: 6.00 Build 0)  -->
<svg version="1.1" id="Calque_2" xmlns="http://www.w3.org/2000/svg" xmlns:xlink="http://www.w3.org/1999/xlink" x="0px" y="0px"
	 viewBox="0 0 100 99.9" style="enable-background:new 0 0 100 99.9;" xml:space="preserve">
<style type="text/css">
	.st0{fill:none;stroke:#000000;stroke-width:1.7035;stroke-miterlimit:10;}
</style>
<g>
	<path class="st0" d="M58.3,31c1.5-4,5.3-6.8,9.8-6.8c5.8,0,10.5,4.7,10.5,10.5s-4.7,10.5-10.5,10.5c-3.1,0-5.8-1.3-7.7-3.4"/>
	<path class="st0" d="M66.8,66.4h17.5c0,0,3.1-21.2-16.1-21.2c-5.3,0-9.2,2.2-11.6,4.6"/>
</g>
<g>
	<path class="st0" d="M40.1,41.3c-1.9,2-5,3.7-8,3.7c-5.8,0-10.5-4.7-10.5-10.5S26.3,24,32.1,24c4.6,0,8.6,3,10,7.2"/>
	<path class="st0" d="M44.1,49.7c-2.4-2.9-5.9-4.6-12-4.6c-19.2,0-15.9,21.2-15.9,21.2h17.5"/>
	<path class="st0" d="M33.7,66.3H34"/>
</g>
<g>
	<circle class="st0" cx="50.2" cy="38.3" r="10.5"/>
	<path class="st0" d="M44.1,49.7c-12.3,4-9.8,20.3-9.8,20.3h32c0,0,3.1-21.2-16.1-21.2C47.8,48.8,45.8,49.1,44.1,49.7"/>
</g>
</svg>
